<svg xmlns="http://www.w3.org/2000/svg" width="39.405" height="32.097" viewBox="0 0 39.405 32.097">
  <g id="ActivityLogo" transform="translate(0 -2.826)">
    <circle id="Ellipse_1" data-name="Ellipse 1" cx="6.5" cy="6.5" r="6.5" transform="translate(13 8.923)" fill="none" stroke="#000" stroke-linecap="round" stroke-linejoin="round" stroke-width="2"/>
    <path id="Path_4" data-name="Path 4" d="M26.455,29.728A8.728,8.728,0,0,0,9,29.728Z" transform="translate(1.975 4.196)" fill="none" stroke="#000" stroke-linecap="round" stroke-linejoin="round" stroke-width="2"/>
    <path id="Path_5" data-name="Path 5" d="M24.987,16.468A6.234,6.234,0,1,0,20,6.494" transform="translate(4.69)" fill="none" stroke="#000" stroke-linecap="round" stroke-linejoin="round" stroke-width="2"/>
    <path id="Path_6" data-name="Path 6" d="M25.247,25.728h7.481A8.728,8.728,0,0,0,24,17" transform="translate(5.677 3.209)" fill="none" stroke="#000" stroke-linecap="round" stroke-linejoin="round" stroke-width="2"/>
    <path id="Path_7" data-name="Path 7" d="M14.222,6.494a6.234,6.234,0,1,0-4.987,9.975" transform="translate(0.494 0)" fill="none" stroke="#000" stroke-linecap="round" stroke-linejoin="round" stroke-width="2"/>
    <path id="Path_8" data-name="Path 8" d="M9.728,17A8.728,8.728,0,0,0,1,25.728H8.481" transform="translate(0 3.209)" fill="none" stroke="#000" stroke-linecap="round" stroke-linejoin="round" stroke-width="2"/>
  </g>
</svg>
